<?xml version="1.0" encoding="UTF-8" standalone="no"?>
<svg
   width="190"
   height="37"
   viewBox="0 0 190 37"
   fill="none"
   version="1.1"
   id="svg1"
   sodipodi:docname="bcbs-logo.svg"
   inkscape:export-filename="bcbs-logo.png"
   inkscape:export-xdpi="96"
   inkscape:export-ydpi="96"
   xmlns:inkscape="http://www.inkscape.org/namespaces/inkscape"
   xmlns:sodipodi="http://sodipodi.sourceforge.net/DTD/sodipodi-0.dtd"
   xmlns="http://www.w3.org/2000/svg"
   xmlns:svg="http://www.w3.org/2000/svg">
  <sodipodi:namedview
     id="namedview1"
     pagecolor="#ffffff"
     bordercolor="#000000"
     borderopacity="0.25"
     inkscape:showpageshadow="2"
     inkscape:pageopacity="0.0"
     inkscape:pagecheckerboard="0"
     inkscape:deskcolor="#d1d1d1" />
  <g
     id="BCBS Logo"
     clip-path="url(#clip0_5539_17203)"
     transform="translate(2.616179,1.3080895)">
    <g
       id="Group">
      <g
         id="Group_2"
         style="fill:#ffffff">
        <path
           id="Vector"
           d="M 81.8516,15.5168 V 0.317023 h 5.706 c 2.7163,-0.167564 5.4943,0.970107 5.4943,3.937757 0,1.66241 -1.1597,2.82213 -2.6722,3.32482 v 0.0441 c 1.9182,0.40127 3.3469,1.72855 3.3469,3.9598 0,3.0117 -3.7879,4.1053 -6.1249,3.9378 h -5.7501 z m 5.8118,-9.09692 c 1.3714,0 2.1254,-0.56883 2.1254,-1.79029 0,-1.22145 -0.7584,-1.79029 -2.1254,-1.79029 h -2.5487 v 3.58499 h 2.5487 z m 0,6.57032 c 1.5389,0 2.5884,-0.2734 2.5884,-2.0196 0,-1.74623 -1.0539,-2.01962 -2.5884,-2.01962 h -2.5487 v 4.04362 h 2.5487 z"
           fill="#000000"
           style="fill:#ffffff" />
        <path
           id="Vector_2"
           d="M 98.9698,0.316406 V 15.5162 H 95.8125 V 0.316406 Z"
           fill="#000000"
           style="fill:#ffffff" />
        <path
           id="Vector_3"
           d="m 108.574,14.2098 c -0.674,0.9701 -1.662,1.6228 -3.263,1.6228 -1.053,0 -3.095,-0.7982 -3.474,-2.3371 -0.168,-0.6526 -0.212,-1.3273 -0.212,-1.6845 V 4.94531 h 3.162 v 6.34099 c 0.017,1.1377 0.335,2.4429 1.896,2.4429 0.988,0 1.852,-0.904 1.896,-2.4429 V 4.94531 h 3.157 v 8.67809 c 0.022,0.6305 0.062,1.2655 0.128,1.8961 h -3.162 l -0.128,-1.3052 z"
           fill="#000000"
           style="fill:#ffffff" />
        <path
           id="Vector_4"
           d="m 117.329,11.0752 c 0,1.367 0.19,2.6546 1.813,2.6546 1.093,0 1.64,-0.4013 1.936,-1.367 h 2.844 c -0.274,2.6105 -2.32,3.4748 -4.78,3.4748 -3.62,0 -5.076,-2.0417 -5.076,-5.5826 0,-3.17928 1.852,-5.62219 5.076,-5.62219 1.98,0 3.62,0.67467 4.506,2.52669 0.296,0.59089 0.441,1.22146 0.525,1.89612 0.084,0.65262 0.084,1.32728 0.084,2.01958 z m 3.665,-2.10336 c 0,-1.15972 -0.313,-2.23125 -1.852,-2.23125 -1.451,0 -1.768,1.07594 -1.813,2.23125 z"
           fill="#000000"
           style="fill:#ffffff" />
        <path
           id="Vector_5"
           d="m 134.888,5.24249 c 0.022,-1.60068 -0.948,-2.88387 -2.906,-2.88387 -2.315,0 -2.906,3.43066 -2.906,5.56048 0,2.1298 0.591,5.5605 2.906,5.5605 1.958,0 2.928,-1.2832 2.906,-2.8839 h 3.475 c -0.146,3.8099 -2.884,5.243 -6.381,5.243 -4.401,0 -6.38,-3.4747 -6.38,-7.91519 0,-4.44045 1.979,-7.91960375 6.38,-7.91960375 3.497,0 6.235,1.43311375 6.381,5.24299375 h -3.475 z"
           fill="#000000"
           style="fill:#ffffff" />
        <path
           id="Vector_6"
           d="m 142.939,4.94682 0.062,1.91817 h 0.044 c 0.675,-1.66241 2.024,-2.08573 3.603,-2.04163 v 2.80008 h -1.367 c -0.53,0.0441 -1.222,0.33513 -1.539,0.78049 -0.34,0.59089 -0.402,1.17736 -0.424,1.87407 v 5.243 h -3.139 l -0.022,-8.4664 c 0,-0.44095 -0.062,-1.32728 -0.106,-2.10778 h 2.884 z"
           fill="#000000"
           style="fill:#ffffff" />
        <path
           id="Vector_7"
           d="m 153.567,15.8331 c -3.453,0 -5.516,-2.2753 -5.516,-5.6001 0,-3.32484 2.063,-5.60019 5.516,-5.60019 3.453,0 5.517,2.27535 5.517,5.60019 0,3.3248 -2.064,5.6001 -5.517,5.6001 z m 0,-2.1077 c 1.936,0 2.253,-1.8124 2.253,-3.4968 0,-1.68449 -0.313,-3.49683 -2.253,-3.49683 -1.94,0 -2.253,1.81234 -2.253,3.49683 0,1.6844 0.317,3.4968 2.253,3.4968 z"
           fill="#000000"
           style="fill:#ffffff" />
        <path
           id="Vector_8"
           d="m 166.687,7.76853 c -0.044,-0.71435 -0.715,-1.03184 -1.433,-1.03184 -0.865,0 -1.261,0.25134 -1.261,0.94806 0,1.66241 6.041,0.71435 6.041,4.67415 0,2.315 -2.822,3.4747 -4.78,3.4747 -2.465,0 -4.613,-0.9701 -4.652,-3.3909 h 2.928 c 0.061,0.8202 0.798,1.2832 1.728,1.2832 0.864,0 1.517,-0.3572 1.517,-1.1774 0,-0.8202 -1.517,-1.1994 -2.147,-1.3493 -2.02,-0.4851 -3.894,-0.926 -3.894,-3.39099 0,-2.2092 2.676,-3.1793 4.528,-3.1793 2.232,0 4.128,0.79813 4.273,3.13962 h -2.844 z"
           fill="#000000"
           style="fill:#ffffff" />
        <path
           id="Vector_9"
           d="m 177.214,7.76853 c -0.04,-0.71435 -0.714,-1.03184 -1.433,-1.03184 -0.864,0 -1.261,0.25134 -1.261,0.94806 0,1.66241 6.041,0.71435 6.041,4.67415 0,2.315 -2.822,3.4747 -4.78,3.4747 -2.465,0 -4.612,-0.9701 -4.652,-3.3909 h 2.928 c 0.062,0.8202 0.802,1.2832 1.728,1.2832 0.865,0 1.517,-0.3572 1.517,-1.1774 0,-0.8202 -1.517,-1.1994 -2.147,-1.3493 -2.024,-0.4851 -3.894,-0.926 -3.894,-3.39099 0,-2.2092 2.672,-3.1793 4.529,-3.1793 2.231,0 4.127,0.79813 4.273,3.13962 h -2.844 z"
           fill="#000000"
           style="fill:#ffffff" />
        <path
           id="Vector_10"
           d="M 81.8516,36.1537 V 20.9495 h 5.706 c 2.7163,-0.1676 5.4943,0.9701 5.4943,3.9377 0,1.6624 -1.1597,2.8222 -2.6722,3.3248 v 0.0397 c 1.9182,0.4013 3.3469,1.7286 3.3469,3.9598 0,3.0118 -3.7879,4.1054 -6.1249,3.9378 h -5.7501 z m 5.8118,-9.097 c 1.3714,0 2.1254,-0.5688 2.1254,-1.7903 0,-1.2214 -0.7584,-1.7902 -2.1254,-1.7902 h -2.5487 v 3.5805 z m 0,6.5703 c 1.5389,0 2.5884,-0.2734 2.5884,-2.024 0,-1.7506 -1.0539,-2.0196 -2.5884,-2.0196 h -2.5487 v 4.0436 z"
           fill="#000000"
           style="fill:#ffffff" />
        <path
           id="Vector_11"
           d="M 98.9698,20.9495 V 36.1537 H 95.8125 V 20.9495 Z"
           fill="#000000"
           style="fill:#ffffff" />
        <path
           id="Vector_12"
           d="m 108.574,34.8427 c -0.674,0.9701 -1.662,1.6227 -3.263,1.6227 -1.053,0 -3.095,-0.7982 -3.474,-2.3371 -0.168,-0.6526 -0.212,-1.3273 -0.212,-1.6845 v -6.8657 h 3.162 v 6.341 c 0.017,1.1377 0.335,2.4429 1.896,2.4429 0.988,0 1.852,-0.904 1.896,-2.4429 v -6.341 h 3.157 v 8.6737 c 0.022,0.6305 0.062,1.2655 0.128,1.8961 h -3.162 z"
           fill="#000000"
           style="fill:#ffffff" />
        <path
           id="Vector_13"
           d="m 117.329,31.7075 c 0,1.3714 0.19,2.6546 1.813,2.6546 1.093,0 1.64,-0.4013 1.936,-1.367 h 2.844 c -0.274,2.6105 -2.32,3.4748 -4.78,3.4748 -3.62,0 -5.076,-2.0417 -5.076,-5.5782 0,-3.1793 1.852,-5.6222 5.076,-5.6222 1.98,0 3.62,0.6747 4.506,2.5267 0.296,0.5909 0.441,1.2215 0.525,1.8961 0.084,0.6527 0.084,1.3273 0.084,2.0196 h -6.928 z m 3.665,-2.1034 c 0,-1.1597 -0.313,-2.2312 -1.852,-2.2312 -1.451,0 -1.768,1.0759 -1.813,2.2312 z"
           fill="#000000"
           style="fill:#ffffff" />
        <path
           id="Vector_14"
           d="m 134.448,25.284 c -0.128,-1.539 -0.948,-2.2974 -2.527,-2.2974 -1.199,0 -2.421,0.6306 -2.421,1.9578 0,1.6448 1.473,1.83 2.778,2.1475 2.315,0.5909 5.728,1.2435 5.728,4.2949 0,3.7702 -3.285,5.0755 -6.548,5.0755 -3.475,0 -5.935,-1.345 -5.834,-5.1813 h 3.329 c -0.128,1.6845 0.843,2.8221 2.549,2.8221 1.305,0 3.034,-0.4012 3.034,-2.024 0,-1.7903 -2.17,-1.9137 -3.475,-2.2533 -2.125,-0.5247 -5.031,-1.4948 -5.031,-4.1891 0,-3.4747 3.201,-5.0137 6.319,-5.0137 2.95,0 5.243,1.6007 5.243,4.6522 h -3.14 z"
           fill="#000000"
           style="fill:#ffffff" />
        <path
           id="Vector_15"
           d="M 140.324,36.1535 V 20.9492 h 3.135 v 5.8736 l 0.045,0.0441 c 0.652,-0.9701 1.644,-1.6007 3.241,-1.6007 1.053,0 3.095,0.7805 3.474,2.315 0.168,0.6526 0.212,1.3273 0.212,1.6845 v 6.8878 h -3.157 v -6.3587 c -0.022,-1.1376 -0.335,-2.4208 -1.896,-2.4208 -0.988,0 -1.852,0.8863 -1.897,2.4208 v 6.3587 z"
           fill="#000000"
           style="fill:#ffffff" />
        <path
           id="Vector_16"
           d="m 156.412,20.9492 v 2.7163 h -3.369 v -2.7163 z m -0.106,4.6301 V 36.149 h -3.157 V 25.5793 Z"
           fill="#000000"
           style="fill:#ffffff" />
        <path
           id="Vector_17"
           d="m 161.802,31.7075 c 0,1.3714 0.19,2.6546 1.812,2.6546 1.094,0 1.641,-0.4013 1.936,-1.367 h 2.844 c -0.273,2.6105 -2.315,3.4748 -4.78,3.4748 -3.62,0 -5.075,-2.0417 -5.075,-5.5782 0,-3.1793 1.852,-5.6222 5.075,-5.6222 1.98,0 3.621,0.6747 4.507,2.5267 0.296,0.5909 0.441,1.2215 0.529,1.8961 0.084,0.6527 0.084,1.3273 0.084,2.0196 h -6.927 z m 3.665,-2.1034 c 0,-1.1597 -0.314,-2.2312 -1.853,-2.2312 -1.45,0 -1.768,1.0759 -1.812,2.2312 z"
           fill="#000000"
           style="fill:#ffffff" />
        <path
           id="Vector_18"
           d="m 173.868,20.9492 v 15.2043 h -3.157 V 20.9492 Z"
           fill="#000000"
           style="fill:#ffffff" />
        <path
           id="Vector_19"
           d="m 183.868,20.9492 h 3.158 v 13.0965 c 0,0.6967 0.061,1.411 0.106,2.1078 h -3.162 c -0.044,-0.5072 -0.084,-0.9922 -0.084,-1.4949 h -0.044 c -0.697,1.2435 -1.874,1.8123 -3.241,1.8123 -3.096,0 -4.546,-2.8838 -4.546,-5.6001 0,-2.7163 1.662,-5.6002 4.947,-5.6002 1.094,0 2.231,0.6526 2.822,1.539 h 0.044 V 20.958 Z m -2.275,13.414 c 1.707,0 2.275,-2.0417 2.275,-3.4968 0,-1.4552 -0.568,-3.4968 -2.275,-3.4968 -2.019,0 -2.275,1.874 -2.275,3.4968 0,1.6227 0.251,3.4968 2.275,3.4968 z"
           fill="#000000"
           style="fill:#ffffff" />
      </g>
      <g
         id="Group_3">
        <path
           id="Vector_20"
           d="m 33.9048,35.9691 c -0.9789,0 -1.6889,-0.7011 -1.6889,-1.6845 0,-0.9833 0.7056,-1.6756 1.6889,-1.6756 0.9833,0 1.6756,0.7055 1.6756,1.6756 0,0.9702 -0.7011,1.6845 -1.6756,1.6845 z m 0,-3.682 c -1.1068,0 -2.0064,0.8996 -2.0064,1.9975 0,1.098 0.8996,2.0064 2.0064,2.0064 1.1068,0 1.9975,-0.8995 1.9975,-2.0064 0,-1.1068 -0.8951,-1.9975 -1.9975,-1.9975 z"
           fill="#00a3e0" />
        <path
           id="Vector_21"
           d="m 33.8535,34.1338 h -0.4057 v -0.7364 h 0.6306 c 0.2733,0 0.5423,0.0397 0.5423,0.3616 0,0.4321 -0.4497,0.3792 -0.7672,0.3792 m 1.0847,-0.3704 c 0,-0.4145 -0.2028,-0.635 -0.7981,-0.635 h -0.9878 v 2.2842 h 0.2911 v -1.0142 h 0.4894 l 0.6438,1.0142 h 0.3308 l -0.6791,-1.0142 c 0.3968,-0.0353 0.7055,-0.2029 0.7055,-0.6394"
           fill="#00a3e0" />
        <path
           id="Vector_22"
           d="M 25.9107,10.1596 V 0.171875 H 9.99211 V 10.1596 H 0 v 15.9759 h 9.99211 v 9.9877 H 25.9107 v -9.9877 h 9.9921 V 10.1596 Z"
           fill="#00a3e0" />
      </g>
      <g
         id="Group_4">
        <path
           id="Vector_23"
           d="m 68.1893,35.9825 c -0.9613,0 -1.6536,-0.6879 -1.6536,-1.6536 0,-0.9657 0.6968,-1.6447 1.6536,-1.6447 0.9569,0 1.6404,0.6879 1.6404,1.6447 0,0.9569 -0.6879,1.6536 -1.6404,1.6536 z m 0,-3.6114 c -1.0847,0 -1.9666,0.8775 -1.9666,1.9578 0,1.0804 0.8819,1.9667 1.9666,1.9667 1.0848,0 1.9579,-0.8819 1.9579,-1.9667 0,-1.0847 -0.8775,-1.9578 -1.9579,-1.9578 z"
           fill="#00a3e0" />
        <path
           id="Vector_24"
           d="m 68.1332,34.1787 h -0.3969 v -0.7232 h 0.6174 c 0.2734,0 0.5335,0.0441 0.5335,0.3572 0,0.4189 -0.4409,0.366 -0.754,0.366 z m 1.0627,-0.366 c 0,-0.4013 -0.1984,-0.6174 -0.7805,-0.6174 h -0.9701 v 2.2401 h 0.2866 v -0.9966 h 0.4807 l 0.6305,0.9966 h 0.3219 l -0.6702,-0.9966 c 0.3924,-0.0309 0.6967,-0.194 0.6967,-0.6306"
           fill="#00a3e0" />
        <path
           id="Vector_25"
           d="M 68.0114,0.189513 C 64.1487,2.13855 60.2947,3.18362 55.7749,3.20126 51.255,3.21449 47.4011,2.12091 43.5339,0.171875 40.9939,5.16793 40.5927,13.286 42.7886,20.0635 44.9052,26.5985 49.0062,32.547 55.7749,36.2907 62.5436,32.5514 66.6445,26.5985 68.7611,20.0635 70.957,13.2816 70.5514,5.18557 68.0159,0.189513"
           fill="#00a3e0" />
      </g>
      <path
         id="Vector_26"
         d="M 24.0683,25.9397 V 25.953 L 19.5352,17.4381 C 19.2045,16.7105 19.35,15.5067 20.5935,15.3347 l 6.6232,-0.6394 c 0.4101,1.0804 0.6306,2.2577 0.6306,3.4792 0,3.1484 -1.4772,5.9573 -3.779,7.7608"
         fill="#f9f9f9" />
      <path
         id="Vector_27"
         d="m 23.4067,26.4293 h -0.0044 c -1.5566,1.0186 -3.4219,1.6183 -5.4238,1.6183 -2.002,0 -3.8672,-0.5997 -5.4238,-1.6227 l 4.8064,-7.1876 c 0.3572,-0.5027 0.8908,-0.463 1.2303,0 l 4.8064,7.1876 h 0.0045 z"
         fill="#f9f9f9" />
      <path
         id="Vector_28"
         d="m 8.10988,18.1784 c 0,-1.2259 0.22048,-2.3988 0.63057,-3.4792 l 6.61875,0.6394 c 1.2435,0.172 1.3846,1.3758 1.0583,2.1034 l -4.5374,8.5149 V 25.9436 C 9.58268,24.1357 8.10547,21.3312 8.10547,18.1828"
         fill="#f9f9f9" />
      <path
         id="Vector_29"
         d="m 17.9805,20.7852 c -0.0529,0 -0.1014,0.022 -0.1411,0.0793 l -3.316,5.0799 c 1.0539,0.4718 2.2269,0.732 3.4571,0.732 1.2303,0 2.3989,-0.2602 3.4572,-0.732 l -3.3205,-5.0799 c -0.0396,-0.0529 -0.0881,-0.0793 -0.1367,-0.0793 z"
         fill="#00a3e0" />
      <path
         id="Vector_30"
         d="M 14.7362,16.6193 9.72249,16.1562 c -0.15433,0.6483 -0.23811,1.3273 -0.23811,2.0196 0,2.121 0.77172,4.0524 2.04602,5.5385 l 3.5145,-6.707 c 0.0837,-0.2073 0.0573,-0.3616 -0.3043,-0.388"
         fill="#00a3e0" />
      <path
         id="Vector_31"
         d="m 17.9817,8.30859 c 3.9554,0 7.3728,2.32831 8.9426,5.69721 h -7.0244 c -1.001,-0.0221 -1.4464,-0.6086 -1.464,-1.0848 -0.0265,-0.5644 0.0661,-0.7452 0.5335,-1.3493 0.5071,-0.6791 0.1588,-1.97551 -0.9877,-1.99756 -1.1465,0.02205 -1.4993,1.32286 -0.9878,1.99756 0.4675,0.6041 0.5557,0.7849 0.5336,1.3493 -0.0176,0.4762 -0.4586,1.0627 -1.464,1.0848 H 9.03906 C 10.6089,10.6369 14.0219,8.30859 17.9817,8.30859 Z"
         fill="#f9f9f9" />
      <path
         id="Vector_32"
         d="m 24.4384,12.6492 c -1.0627,-1.2391 -2.4826,-2.174 -4.0965,-2.6414 0.5027,0.8334 0.0926,1.9226 -0.3793,2.4385 -0.0882,0.0882 -0.0441,0.1808 0.0353,0.2029 z"
         fill="#00a3e0" />
      <path
         id="Vector_33"
         d="m 21.2189,16.6193 c -0.3616,0.0264 -0.3881,0.1807 -0.3043,0.388 l 3.51,6.707 c 1.2788,-1.4905 2.0505,-3.4219 2.0505,-5.5385 0,-0.6923 -0.0838,-1.3669 -0.2425,-2.0196 z"
         fill="#00a3e0" />
      <path
         id="Vector_34"
         d="m 15.6199,10.0078 c -1.6183,0.4674 -3.0338,1.3978 -4.0965,2.6414 h 4.4405 c 0.0794,-0.0221 0.1235,-0.1147 0.0309,-0.2029 -0.4719,-0.5159 -0.8731,-1.6051 -0.3749,-2.4385 z"
         fill="#00a3e0" />
      <path
         id="Vector_35"
         d="m 66.2038,19.2914 c -1.9006,5.5737 -4.8682,10.5169 -10.4331,13.9652 0,0 0,0 0.0088,0.0044 H 55.7707 C 50.2058,29.8083 47.2382,24.8651 45.3376,19.287 43.6488,14.3306 43.2387,8.53204 45.0907,4.00781 c 2.7824,0.95688 4.414,1.25232 5.9309,1.48603 1.411,0.22048 2.6722,0.35718 4.7447,0.38363 h 0.0088 c 2.0637,-0.02645 3.3292,-0.16315 4.7403,-0.38363 1.5125,-0.23371 3.144,-0.52915 5.9309,-1.48603 1.8564,4.52423 1.4419,10.32729 -0.2425,15.27919"
         fill="#f9f9f9" />
      <path
         id="Vector_36"
         d="M 60.6061,6.79457 C 58.979,7.01064 57.3651,7.17379 55.782,7.18702 H 55.7732 C 54.1814,7.17379 52.5719,7.01064 50.9447,6.79457 49.3176,6.57409 47.7434,6.20368 46.0545,5.75391 44.8727,9.09637 45.1241,13.3163 46.0369,17.0689 c 1.7065,7.073 5.975,12.4482 9.7407,14.8206 3.7658,-2.368 8.0343,-7.7476 9.7408,-14.8206 0.9084,-3.7526 1.1553,-7.97253 -0.022,-11.31499 -1.6845,0.44977 -3.2631,0.82018 -4.8859,1.04066"
         fill="#00a3e0" />
      <path
         id="Vector_37"
         d="m 59.7676,10.5648 c -0.0838,0.2778 -0.15,0.2734 -0.3307,0.4454 -0.3793,0.3439 -0.882,0.6967 -1.3714,1.1685 -0.3131,0.2999 -0.6174,0.4763 -0.8422,0.8378 -0.053,0.0794 -0.1676,0.3043 -0.1676,0.3043 -0.8378,-0.1676 -1.6889,-0.1852 -2.3415,-0.3175 L 54.6833,12.289 c 0,0 0.8379,-0.0089 0.9216,-0.5116 0,-0.0264 -0.0176,-0.1807 -0.1102,-0.2513 -0.1147,-0.0838 -0.366,-0.1764 -0.4233,-0.1984 0.635,0.1014 1.1906,0.3307 1.8432,0.6173 0.0397,-0.0661 -0.0662,-0.3087 -0.1147,-0.3616 -0.0882,-0.1014 -0.1896,-0.1808 -0.4189,-0.2337 -0.3968,-0.1014 -1.3493,-0.2205 -1.3493,-0.2205 0,0 0.3439,-0.0132 0.8069,-0.0308 0.2029,-0.0309 0.4101,-0.1147 0.4542,-0.1808 0.0485,-0.1014 -0.0176,-0.2602 -0.1543,-0.4101 -0.0926,-0.1014 -0.1896,-0.194 -0.2646,-0.2999 -0.097,-0.1367 -0.2205,-0.38801 -0.3924,-0.54234 -0.2117,-0.25135 -0.8511,-0.49388 -0.8511,-0.49388 0,0 -0.0529,-0.42773 0.0529,-0.63498 0.0794,-0.15433 0.4189,-0.17197 0.5292,-0.11905 0.4762,0.26898 1.0186,0.56001 1.658,0.67466 0.1323,0.09701 0.1367,0.12788 0.1764,0.3219 0.0926,0.42773 -0.075,1.05389 0.0132,1.35379 0.0441,0.097 0.1367,0.0926 0.2117,0.0529 0.5952,-0.3175 0.9965,-0.87313 1.6006,-1.12889 0.2822,-0.11905 1.0848,0.28663 0.904,0.87309"
         fill="#f9f9f9" />
      <path
         id="Vector_38"
         d="m 57.1224,18.7445 c 0,0 0.0749,-1.2655 0.0838,-1.874 0.3351,-0.1323 0.41,-0.463 0.2822,-0.732 -0.0706,-0.15 -0.3219,-0.2558 -0.4719,-0.2955 -0.6967,-0.1764 -1.3316,-0.2072 -2.0504,-0.2866 -0.6306,-0.0661 -1.1289,-0.1499 -1.7065,-0.2998 -1.1818,-0.3043 -2.1828,-0.8467 -2.7075,-1.9226 -0.6482,-1.3317 -0.0661,-2.9809 1.2082,-3.64675 0.9657,-0.50269 2.0505,-0.40568 3.025,-0.03527 0.3395,0.13228 0.5203,0.42332 0.7276,0.70992 0.0926,0.1279 0.2381,0.1808 0.3175,0.3219 0.0485,0.0794 -0.0618,0.1191 -0.1059,0.1279 -0.2116,0.0617 -0.926,0.0706 -1.1597,0.0441 -0.291,-0.0397 -0.7761,-0.0221 -1.0671,0.0397 0.3043,0.172 0.635,0.388 0.9392,0.5071 0.1852,0.0705 0.3308,0.0705 0.5027,0.1543 0.0706,0.0353 0.2734,0.0926 0.2734,0.1896 -0.022,0.0926 -0.1896,0.1279 -0.3131,0.1676 -0.2733,0.075 -0.6526,0.0926 -1.0053,0.0088 -0.5556,-0.1279 -0.8158,-0.4542 -1.1598,-0.2513 -0.2293,0.1367 -0.2337,0.4497 -0.1587,0.7672 0.1235,0.4939 0.6394,0.6967 1.0759,0.8423 1.5169,0.4894 3.1397,0.2116 4.6213,0.9745 0.5732,0.2954 1.2214,0.8907 1.3405,1.5257 0.5071,2.6502 -2.487,2.9632 -2.487,2.9632"
         fill="#f9f9f9" />
      <path
         id="Vector_39"
         d="m 54.7259,16.0982 c 0,0 0.2998,0.0308 1.0274,0.0793 0.56,0.0397 0.9348,0.1941 0.9348,0.1941 l -0.0705,2.6677 c -0.5953,-0.1146 -0.9834,-0.1763 -1.539,-0.2513 -0.1808,-0.9657 -0.4145,-1.2964 -0.8025,-2.0064 -0.0882,-0.1631 -0.0132,-0.2248 0.0132,-0.2645 0.0529,-0.097 0.441,-0.1941 0.441,-0.1941 l -0.0088,-0.2292 z"
         fill="#f9f9f9" />
      <path
         id="Vector_40"
         d="m 58.779,21.9103 c -0.1014,0.4321 -0.3792,0.7761 -0.8334,1.0495 -0.4762,0.2866 -0.9745,0.3087 -0.9745,0.3087 l 0.0397,-1.464 c 0,0 0.1102,-0.0265 0.1852,-0.1191 0.075,-0.0926 0.0926,-0.1543 0.075,-0.2822 -0.0133,-0.0838 -0.0794,-0.194 -0.2117,-0.2513 -0.1455,-0.0618 -0.366,-0.0838 -0.4586,-0.0926 -0.7232,-0.0882 -1.3846,-0.1676 -2.0901,-0.2823 -1.2788,-0.2072 -2.1828,-0.9436 -2.1078,-2.1607 0.0529,-0.8201 0.9128,-1.0759 1.5213,-1.3272 0.1984,0.3527 0.3792,0.732 0.4498,0.9216 0.1146,0.3263 0.1763,0.5423 0.1763,0.5423 0,0 -0.2733,0.0485 -0.2513,0.2734 0.022,0.1985 0.2425,0.2823 0.3792,0.3043 0.8952,0.1235 2.0813,0.2734 2.7119,0.4851 0.4189,0.1455 0.829,0.3792 1.0627,0.7055 0.3528,0.4894 0.4366,0.8863 0.3175,1.3978"
         fill="#f9f9f9" />
      <path
         id="Vector_41"
         d="m 55.2578,21.3828 c 0.5821,0.0662 0.7937,0.0882 1.2876,0.1455 l -0.0485,2.4165 -0.56,-0.3043 -0.5556,-0.269 z"
         fill="#f9f9f9" />
      <path
         id="Vector_42"
         d="m 57.5073,27.1151 c -0.3175,0.2646 -0.6967,0.3528 -0.6967,0.3528 l 0.0396,-1.0319 c 0,0 0.1147,-0.1058 0.0838,-0.2337 -0.0529,-0.2072 -0.7893,-0.7011 -1.1817,-0.851 -0.4013,-0.1588 -0.9349,-0.3087 -1.3185,-0.4763 -0.8863,-0.3836 -1.2082,-1.1641 -0.8466,-2.0107 0.1322,-0.3131 0.485,-0.5292 0.6834,-0.6438 C 54.4823,22.097 54.791,22 54.791,22 l 0.0926,1.2082 c 0,0 -0.1147,0.0441 -0.1499,0.15 -0.0662,0.2116 0.1278,0.3307 0.1807,0.3527 0.5821,0.2602 1.4287,0.5953 2.0461,0.9613 0.7981,0.4674 1.0627,0.807 1.0627,1.3714 0,0.5071 -0.2161,0.829 -0.5115,1.0759"
         fill="#f9f9f9" />
      <path
         id="Vector_43"
         d="m 56.3706,29.7336 c 0,0.1896 -0.075,0.3395 -0.4366,0.3484 -0.2998,0 -0.4321,-0.1015 -0.4409,-0.4145 -0.0486,-1.3891 -0.1103,-3.9995 -0.1103,-3.9995 0,0 0.3925,0.119 0.5777,0.2293 0.0573,0.0308 0.2601,0.1631 0.4409,0.3483 0.0353,0.0529 0.0662,0.0662 0.0618,0.15 -0.0221,1.0142 -0.0838,2.8926 -0.0882,3.338"
         fill="#f9f9f9" />
      <path
         id="Vector_44"
         d="m 54.8346,28.5864 c -0.0529,0.366 0.097,0.5204 0.0617,0.6923 -0.0617,0.2779 -0.2381,0.1941 -0.3439,-0.0132 -0.1455,-0.2778 -0.2426,-0.4189 -0.2822,-0.8466 -0.0662,-0.6791 0.2734,-1.0054 0.4277,-1.1597 0.1676,-0.1676 0.3219,-0.2514 0.3219,-0.2514 l 0.0529,1.1421 c 0,0 -0.1852,0.0705 -0.2381,0.4365 z"
         fill="#f9f9f9" />
      <path
         id="Vector_45"
         d="m 53.9167,9.9415 c 0.1896,0.1323 0.1499,0.3704 0.4189,0.3219 0.1411,-0.022 0.2249,-0.1102 0.3483,-0.1984 0.0177,-0.0088 0.1588,0.0088 0.1985,0.022 -0.2999,-0.30424 -0.8996,-0.30424 -1.2965,-0.31747 0.1015,0.19402 0.2117,0.0926 0.3263,0.16757"
         fill="#00a3e0" />
    </g>
    <g
       id="Group_5">
      <path
         id="Vector_46"
         d="m 181.754,15.6328 c -0.569,0 -0.979,-0.4101 -0.979,-0.9789 0,-0.5689 0.41,-0.9746 0.979,-0.9746 0.569,0 0.974,0.4101 0.974,0.9746 0,0.5644 -0.405,0.9789 -0.974,0.9789 z m 0,-2.1387 c -0.644,0 -1.164,0.5248 -1.164,1.1598 0,0.6349 0.52,1.1641 1.164,1.1641 0.644,0 1.16,-0.5248 1.16,-1.1641 0,-0.6394 -0.521,-1.1598 -1.16,-1.1598 z"
         fill="#000000" />
      <path
         id="Vector_47"
         d="m 181.722,14.5664 h -0.234 v -0.4277 h 0.366 c 0.159,0 0.317,0.0221 0.317,0.2073 0,0.2513 -0.26,0.2204 -0.445,0.2204 m 0.631,-0.2116 c 0,-0.2381 -0.12,-0.3704 -0.463,-0.3704 h -0.574 v 1.3273 h 0.168 v -0.5865 h 0.286 l 0.375,0.5865 h 0.194 l -0.397,-0.5865 c 0.23,-0.0221 0.411,-0.1191 0.411,-0.3704 z"
         fill="#000000" />
    </g>
    <g
       id="Group_6">
      <path
         id="Vector_48"
         d="m 188.844,35.959 c -0.569,0 -0.979,-0.4101 -0.979,-0.979 0,-0.5688 0.41,-0.9745 0.979,-0.9745 0.569,0 0.974,0.4101 0.974,0.9745 0,0.5645 -0.405,0.979 -0.974,0.979 z m 0,-2.1387 c -0.644,0 -1.164,0.5248 -1.164,1.1597 0,0.635 0.52,1.1642 1.164,1.1642 0.644,0 1.16,-0.5248 1.16,-1.1642 0,-0.6394 -0.521,-1.1597 -1.16,-1.1597 z"
         fill="#000000" />
      <path
         id="Vector_49"
         d="m 188.808,34.8907 h -0.234 v -0.4278 h 0.366 c 0.159,0 0.317,0.0221 0.317,0.2073 0,0.2513 -0.26,0.2205 -0.445,0.2205 m 0.631,-0.2117 c 0,-0.2381 -0.12,-0.3704 -0.463,-0.3704 h -0.574 v 1.3273 h 0.168 v -0.5865 h 0.286 l 0.375,0.5865 h 0.194 l -0.397,-0.5865 c 0.23,-0.022 0.411,-0.1191 0.411,-0.3704 z"
         fill="#000000" />
    </g>
  </g>
  <defs
     id="defs1">
    <clipPath
       id="clip0_5539_17203">
      <rect
         width="190"
         height="36.467201"
         fill="transparent"
         id="rect1"
         x="0"
         y="0" />
    </clipPath>
  </defs>
</svg>
